<svg height="175" viewBox="0 0 100 175" width="100" xmlns="http://www.w3.org/2000/svg" xmlns:xlink="http://www.w3.org/1999/xlink"><clipPath id="a"><path d="m0 0h100v175h-100z"/></clipPath><g clip-path="url(#a)"><path d="m140.088 691.233a49.982 49.982 0 0 0 -50.088 49.736c0 23.752 15.5 36.544 15.5 36.544 1.534 1.351 1.146 2.053.055 3.158 0 0-15.559 14.154-15.559 36.045 0 30 24 50.264 50.088 50.264 29.168 0 49.912-23.72 49.912-49.912a50.856 50.856 0 0 0 -14.939-35.852c-2.106-2.028-2.1-2.364 0-4.218 0 0 14.939-12.555 14.939-36.028a49.761 49.761 0 0 0 -49.908-49.737zm-11.149 25.8a4.066 4.066 0 0 1 3.405 1.845 4.074 4.074 0 0 1 7.107.516 4.071 4.071 0 0 1 7.387-.006 4.072 4.072 0 1 1 0 3.433 4.071 4.071 0 0 1 -7.387-.005 4.074 4.074 0 0 1 -7.107.516 2.381 2.381 0 0 0 .67 4.476 4.073 4.073 0 0 0 0 6.678 2.205 2.205 0 0 0 -.89 4.147 4.066 4.066 0 0 1 6.689.467 4.073 4.073 0 0 1 6.991-.044 4.073 4.073 0 1 1 0 4.223 4.073 4.073 0 0 1 -6.991-.044 4.066 4.066 0 0 1 -6.689.467 2.206 2.206 0 0 0 .89 4.163 4.07 4.07 0 0 0 0 6.706 2.369 2.369 0 0 0 -.676 4.46 4.073 4.073 0 0 1 7.112.505 4.071 4.071 0 0 1 7.387-.006 4.072 4.072 0 1 1 0 3.433 4.071 4.071 0 0 1 -7.387-.006 4.071 4.071 0 0 1 -7.1.527 7.31 7.31 0 0 1 -5.723-12.264 10.962 10.962 0 0 0 -1.763-10.056 4.073 4.073 0 0 0 0-6.678 4.073 4.073 0 0 0 0-6.678 4.07 4.07 0 0 0 0-6.706 4.068 4.068 0 0 1 4.07-4.07zm0 75.851a4.066 4.066 0 0 1 3.405 1.845 4.074 4.074 0 0 1 7.107.516 4.071 4.071 0 0 1 7.387-.006 4.072 4.072 0 1 1 0 3.433 4.071 4.071 0 0 1 -7.387-.005 4.074 4.074 0 0 1 -7.107.516 2.384 2.384 0 0 0 .67 4.476 4.065 4.065 0 0 0 0 6.678 2.2 2.2 0 0 0 -.89 4.146 4.066 4.066 0 0 1 6.689.467 4.073 4.073 0 0 1 6.991-.044 4.072 4.072 0 1 1 0 4.223 4.073 4.073 0 0 1 -6.991-.044 4.066 4.066 0 0 1 -6.689.467 2.21 2.21 0 0 0 .89 4.169 4.072 4.072 0 0 0 0 6.7 2.374 2.374 0 0 0 -.676 4.465 4.072 4.072 0 0 1 7.112.505 4.071 4.071 0 0 1 7.387-.005 4.072 4.072 0 1 1 0 3.433 4.071 4.071 0 0 1 -7.387-.006 4.071 4.071 0 0 1 -7.1.527 7.318 7.318 0 0 1 -5.728-12.269 10.938 10.938 0 0 0 -1.757-10.051 4.071 4.071 0 0 0 0-6.684 4.065 4.065 0 0 0 0-6.678 4.072 4.072 0 0 0 0-6.7 4.072 4.072 0 0 1 4.074-4.072z" fill="#fce804" transform="translate(-90 -691.232)"/></g></svg>