<svg xmlns="http://www.w3.org/2000/svg" width="20.132" height="20" viewBox="0 0 20.132 20"><g transform="translate(-803 -690)"><rect width="20" height="20" transform="translate(803 690)" fill="rgba(255,255,255,0)"/><g transform="translate(802.5 689.5)"><path d="M4,3.591A4.309,4.309,0,0,1,8.318,1" transform="translate(-0.064)" fill="none" stroke="#dd542a" stroke-linecap="round" stroke-linejoin="round" stroke-miterlimit="10" stroke-width="1"/><path d="M22.318,20A4.309,4.309,0,0,1,18,22.591" transform="translate(-2.318 -2.591)" fill="none" stroke="#dd542a" stroke-linecap="round" stroke-linejoin="round" stroke-miterlimit="10" stroke-width="1"/><g transform="translate(1 2.496)"><path d="M12,8.145l4.966-4.966a1.527,1.527,0,0,1,2.159,2.159L16.75,7.714" transform="translate(-2.5 -2.733)" fill="none" stroke="#dd542a" stroke-linecap="round" stroke-linejoin="round" stroke-miterlimit="10" stroke-width="1"/><path d="M5,9.873l6.693-6.693a1.527,1.527,0,0,1,2.159,2.159L11.477,7.714" transform="translate(-1.545 -2.733)" fill="none" stroke="#dd542a" stroke-linecap="round" stroke-linejoin="round" stroke-miterlimit="10" stroke-width="1"/><path d="M14.818,13.182l2.375-2.375a1.527,1.527,0,0,1,2.159,2.159l-5.728,5.728a4.776,4.776,0,0,1-5.214,1.031L4.188,17.965A5.183,5.183,0,0,1,1,13.182V9.727a1.727,1.727,0,0,1,3.455,0v.864" transform="translate(-1 -3.451)" fill="none" stroke="#dd542a" stroke-linecap="round" stroke-linejoin="round" stroke-miterlimit="10" stroke-width="1"/><path d="M15,10.4l3.339-3.339A1.527,1.527,0,0,1,20.5,9.223L18.123,11.6" transform="translate(-2.909 -3.262)" fill="none" stroke="#dd542a" stroke-linecap="round" stroke-linejoin="round" stroke-miterlimit="10" stroke-width="1"/></g></g></g></svg>