<svg xmlns="http://www.w3.org/2000/svg" width="50" height="50" viewBox="0 0 50 50"><g transform="translate(-910 -861)"><rect width="50" height="50" transform="translate(910 861)" fill="rgba(255,255,255,0)"/><g transform="translate(915 866)"><path d="M36.374,0H3.626A3.626,3.626,0,0,0,0,3.626V36.374A3.626,3.626,0,0,0,3.626,40H36.374A3.626,3.626,0,0,0,40,36.374V3.626A3.626,3.626,0,0,0,36.374,0" fill="#dc395f"/><path d="M52.763,54.543a2.408,2.408,0,1,0-2.443-2.408,2.416,2.416,0,0,0,2.443,2.408M47.7,67.437a8.27,8.27,0,0,0-.216,1.809,3.223,3.223,0,0,0,3.593,3.528,5.718,5.718,0,0,0,4.853-3.147l-.722,2.9h4.024l2.3-9.225c.575-2.336,1.689-3.548,3.378-3.548a2.011,2.011,0,0,1,2.156,2.192,4.3,4.3,0,0,1-.18,1.294L65.7,67.479a6.373,6.373,0,0,0-.251,1.8c0,2.013,1.185,3.485,3.665,3.485,2.12,0,3.809-1.365,4.743-4.635l-1.581-.61C71.482,69.706,70.8,70.1,70.26,70.1s-.827-.359-.827-1.077a4.767,4.767,0,0,1,.18-1.115l1.15-4.131a9.111,9.111,0,0,0,.4-2.62c0-3.09-1.869-4.7-4.132-4.7-2.12,0-4.276,1.912-5.354,3.925l.79-3.612H56.318l-.863,3.182H58.33l-1.77,7.087c-1.39,3.09-3.944,3.14-4.264,3.069-.526-.119-.863-.319-.863-1a6.776,6.776,0,0,1,.252-1.645l2.7-10.691H47.553L46.69,59.95h2.839L47.7,67.437" transform="translate(-39.395 -41.958)" fill="#fff"/></g></g></svg>