<svg xmlns="http://www.w3.org/2000/svg" width="50.409" height="27.457" viewBox="0 0 50.409 27.457"><g transform="translate(-1200 -951.476)"><g transform="translate(1200 951.476)"><path d="M15.372,23.568A4.57,4.57,0,1,0,10.8,19,4.57,4.57,0,0,0,15.372,23.568Zm-10.8,9.14A4.57,4.57,0,1,0,0,28.138,4.57,4.57,0,0,0,4.57,32.708Zm41.269,0a4.57,4.57,0,1,0-4.57-4.57A4.57,4.57,0,0,0,45.839,32.708Z" transform="translate(0 -5.337)" fill="#fff"/><path d="M42.966,13.854c-.146-1.527-.221-2.8-1.39-3.691-1.481-1.131-3.159-.4-5.226-1.143a4.593,4.593,0,0,1-3.537-4.444,4.666,4.666,0,0,1,8.912-1.842c1.1,2.1.386,4.227,1.772,5.3,1.641,1.272,3.853.34,6.322,1.545a4.65,4.65,0,0,1,1.938,1.659,4.5,4.5,0,0,1,.748,2.489,4.593,4.593,0,0,1-3.537,4.444c-2.067.746-3.745.012-5.226,1.143-1.666,1.272-.774,3.4-2.132,5.648a4.661,4.661,0,0,1-4.144,2.493A4.565,4.565,0,0,1,35.5,18.732c2.468-1.2,4.681-.274,6.322-1.545C42.766,16.453,42.966,15.322,42.966,13.854Z" transform="translate(-12.137)" fill="#d0021b"/></g></g></svg>