<svg height="39" viewBox="0 0 40 39" width="40" xmlns="http://www.w3.org/2000/svg"><g fill="none" stroke="#fff"><g stroke-width="1.5"><ellipse cx="20" cy="19.5" rx="20" ry="19.5" stroke="none"/><ellipse cx="20" cy="19.5" fill="none" rx="19.25" ry="18.75"/></g><path d="m17.172 13.08-2.2-2.2a1.524 1.524 0 0 0 -2.155 0l-1.824 1.82a9.483 9.483 0 0 1 -5.08-5.08l1.825-1.82a1.523 1.523 0 0 0 0-2.154l-2.2-2.2a1.524 1.524 0 0 0 -2.155 0l-1.045 1.046a4.612 4.612 0 0 0 -1.25 4.152 13.831 13.831 0 0 0 10.886 10.888 4.612 4.612 0 0 0 4.152-1.25l1.046-1.046a1.524 1.524 0 0 0 0-2.155z" stroke-linecap="round" stroke-linejoin="round" stroke-miterlimit="10" stroke-width="2" transform="translate(11.097 9.953)"/></g></svg>