<svg height="27.457" viewBox="0 0 50.409 27.457" width="50.409" xmlns="http://www.w3.org/2000/svg"><path d="m15.372 23.568a4.57 4.57 0 1 0 -4.572-4.568 4.57 4.57 0 0 0 4.572 4.568zm-10.8 9.14a4.57 4.57 0 1 0 -4.572-4.57 4.57 4.57 0 0 0 4.57 4.57zm41.269 0a4.57 4.57 0 1 0 -4.57-4.57 4.57 4.57 0 0 0 4.568 4.57z" transform="translate(0 -5.337)"/><path d="m42.966 13.854c-.146-1.527-.221-2.8-1.39-3.691-1.481-1.131-3.159-.4-5.226-1.143a4.593 4.593 0 0 1 -3.537-4.444 4.666 4.666 0 0 1 8.912-1.842c1.1 2.1.386 4.227 1.772 5.3 1.641 1.272 3.853.34 6.322 1.545a4.65 4.65 0 0 1 1.938 1.659 4.5 4.5 0 0 1 .748 2.489 4.593 4.593 0 0 1 -3.537 4.444c-2.067.746-3.745.012-5.226 1.143-1.666 1.272-.774 3.4-2.132 5.648a4.661 4.661 0 0 1 -4.144 2.493 4.565 4.565 0 0 1 -1.966-8.723c2.468-1.2 4.681-.274 6.322-1.545.944-.734 1.144-1.865 1.144-3.333z" fill="#d0021b" transform="translate(-12.137)"/></svg>