<svg xmlns="http://www.w3.org/2000/svg" width="14" height="17.333" viewBox="0 0 14 17.333"><path d="M7,17.333H7c-.072-.075-1.787-1.862-3.5-4.075A28.872,28.872,0,0,1,1.094,9.7,7.175,7.175,0,0,1,0,6.493,6.223,6.223,0,0,1,2.05,1.9,7.239,7.239,0,0,1,7,0a7.239,7.239,0,0,1,4.95,1.9A6.223,6.223,0,0,1,14,6.493,7.175,7.175,0,0,1,12.906,9.7,28.871,28.871,0,0,1,10.5,13.258c-1.712,2.213-3.428,4-3.5,4.075Zm0-13A2.421,2.421,0,0,0,4.529,6.69,2.42,2.42,0,0,0,7,9.051,2.42,2.42,0,0,0,9.471,6.69,2.421,2.421,0,0,0,7,4.329Z" fill="#dd542a"/></svg>