<svg xmlns="http://www.w3.org/2000/svg" width="40" height="39" viewBox="0 0 40 39"><g fill="none" stroke="#fff" stroke-width="1.5"><ellipse cx="20" cy="19.5" rx="20" ry="19.5" stroke="none"/><ellipse cx="20" cy="19.5" rx="19.25" ry="18.75" fill="none"/></g><path d="M17.172,13.08l-2.2-2.2a1.524,1.524,0,0,0-2.155,0L10.993,12.7a9.483,9.483,0,0,1-5.08-5.08L7.738,5.8a1.523,1.523,0,0,0,0-2.154l-2.2-2.2a1.524,1.524,0,0,0-2.155,0L2.338,2.492a4.612,4.612,0,0,0-1.25,4.152A13.831,13.831,0,0,0,11.974,17.532a4.612,4.612,0,0,0,4.152-1.25l1.046-1.046a1.524,1.524,0,0,0,0-2.155Z" transform="translate(11.097 9.953)" fill="none" stroke="#fff" stroke-linecap="round" stroke-linejoin="round" stroke-miterlimit="10" stroke-width="2"/></svg>