<svg xmlns="http://www.w3.org/2000/svg" width="39" height="39" viewBox="0 0 39 39"><g fill="none" stroke="#fff" stroke-width="1.5"><circle cx="19.5" cy="19.5" r="19.5" stroke="none"/><circle cx="19.5" cy="19.5" r="18.75" fill="none"/></g><g transform="translate(9.82 12.086)"><path d="M1,7.923l8.324,3.25a4.163,4.163,0,0,0,2.992,0l8.324-3.25" transform="translate(-1 -3.646)" fill="rgba(0,0,0,0)" stroke="#fff" stroke-linecap="round" stroke-linejoin="round" stroke-miterlimit="10" stroke-width="2"/><path d="M18.855,18.108H2.785A1.734,1.734,0,0,1,1,16.429V4.679A1.734,1.734,0,0,1,2.785,3H18.855A1.734,1.734,0,0,1,20.64,4.679V16.429A1.734,1.734,0,0,1,18.855,18.108Z" transform="translate(-1 -3)" fill="rgba(0,0,0,0)" stroke="#fff" stroke-linecap="round" stroke-linejoin="round" stroke-miterlimit="10" stroke-width="2"/></g></svg>