<svg xmlns="http://www.w3.org/2000/svg" width="20" height="20" viewBox="0 0 20 20"><g transform="translate(-802 -609)"><rect width="20" height="20" transform="translate(802 609)" fill="rgba(255,255,255,0)"/><g transform="translate(801.5 608.5)"><g transform="translate(5.318 14.818)"><path d="M6,22.182a2.591,2.591,0,0,0,2.591-2.591V17" transform="translate(-6 -17)" fill="none" stroke="#dd542a" stroke-linecap="round" stroke-linejoin="round" stroke-miterlimit="10" stroke-width="1"/><path d="M17.591,22.182A2.591,2.591,0,0,1,15,19.591V17" transform="translate(-7.227 -17)" fill="none" stroke="#dd542a" stroke-linecap="round" stroke-linejoin="round" stroke-miterlimit="10" stroke-width="1"/><path d="M6,23H16.364" transform="translate(-6 -17.818)" fill="none" stroke="#dd542a" stroke-linecap="round" stroke-linejoin="round" stroke-miterlimit="10" stroke-width="1"/></g><path d="M18.273,14.818H2.727A1.727,1.727,0,0,1,1,13.091V2.727A1.727,1.727,0,0,1,2.727,1H18.273A1.727,1.727,0,0,1,20,2.727V13.091A1.727,1.727,0,0,1,18.273,14.818Z" fill="none" stroke="#dd542a" stroke-linecap="round" stroke-linejoin="round" stroke-miterlimit="10" stroke-width="1"/><path d="M8.591,6,6,8.591l2.591,2.591" transform="translate(-0.682 -0.682)" fill="none" stroke="#dd542a" stroke-linecap="round" stroke-linejoin="round" stroke-miterlimit="10" stroke-width="1"/><path d="M15,11.182l2.591-2.591L15,6" transform="translate(-1.909 -0.682)" fill="none" stroke="#dd542a" stroke-linecap="round" stroke-linejoin="round" stroke-miterlimit="10" stroke-width="1"/></g></g></svg>