<svg height="529.054" viewBox="0 0 1994.504 529.054" width="1994.504" xmlns="http://www.w3.org/2000/svg"><g transform="translate(-45.496 -65.226)"><g fill="#231e2e"><rect height="239.161" rx="16" width="32.613" x="1558.054" y="210.172"/><rect height="239.161" rx="16" width="32.613" x="2007.387" y="210.172"/><rect height="282.645" rx="16" width="32.613" x="934.785" y="311.634"/></g><g fill="none" stroke="#231e2e" stroke-width="32"><circle cx="1054.5" cy="329.558" r="119.5" stroke="none"/><circle cx="1054.5" cy="329.558" fill="none" r="103.5"/></g><path d="m16.306 0a16.306 16.306 0 0 1 16.307 16.306v169.476c24.495-55.517 167.648-88.848 169.865 78.75v103.268c-.317 7.931-6.731 16.333-16.46 16.306s-16.789-8.078-16.5-16.306v-103.268c-1.018-150.686-136.418-103.218-136.905-3.263v106.531a16.306 16.306 0 1 1 -32.613 0v-351.494a16.306 16.306 0 0 1 16.306-16.306z" fill="#231e2e" transform="translate(347.753 65.226)"/><rect fill="#231e2e" height="282.645" rx="16" width="32.613" x="1246.419" y="311.634"/><g fill="none" stroke="#231e2e" stroke-width="32"><circle cx="1365.5" cy="329.558" r="119.5" stroke="none"/><circle cx="1365.5" cy="329.558" fill="none" r="103.5"/></g><g fill="none" transform="translate(624 210.058)"><path d="m119.5 0a119.5 119.5 0 1 1 -119.5 119.5 119.5 119.5 0 0 1 119.5-119.5z"/><path d="m119.5 32c-48.24768066 0-87.5 39.25231934-87.5 87.5s39.25231934 87.5 87.5 87.5 87.5-39.25231934 87.5-87.5-39.25231934-87.5-87.5-87.5m0-32c65.9980011 0 119.5 53.5019989 119.5 119.5s-53.5019989 119.5-119.5 119.5-119.5-53.5019989-119.5-119.5 53.5019989-119.5 119.5-119.5z" fill="#231e2e"/></g><path d="m10.5 212.667c23.623 16.573 67.054 47.415 67.054 47.415 17.5 11.246 36.93 4.91 49.191-11.264 0 0 198.416-292.081 165.837-243.33" fill="none" stroke="#9cb900" stroke-width="32" transform="matrix(.99026807 .1391731 -.1391731 .99026807 1663.778 145.633)"/><path d="m137.632 760.416q-33.856 0-58.512-8.464t-38.64-19.872q-13.98-11.408-13.98-21.712a16.331 16.331 0 0 1 1.84-7.36 22.013 22.013 0 0 1 5.152-6.624q3.312-2.944 6.256-2.944 7.36 0 16.928 8.464t27.964 17.296q18.4 8.832 52.256 8.832 44.16 0 62.56-16.928t18.4-39.744q0-26.5-12.88-41.584t-34.224-23.184q-21.344-8.1-44.528-14.352a299.247 299.247 0 0 1 -44.524-15.824 86.64 86.64 0 0 1 -34.6-27.232q-13.248-17.664-13.248-47.84 0-22.08 11.776-44.9t36.432-37.536q24.656-14.72 64.4-14.72a204.775 204.775 0 0 1 44.9 4.784q21.344 4.784 35.328 12.512t13.984 15.824a19.742 19.742 0 0 1 -2.208 7.728 27.761 27.761 0 0 1 -5.52 8.1 11.462 11.462 0 0 1 -8.464 3.312q-5.152 0-14.72-5.152a143.031 143.031 0 0 0 -25.024-9.936q-15.456-4.784-37.536-4.784-28.7 0-46 10.3t-25.024 25.024q-7.728 14.72-7.728 28.7 0 22.08 13.248 34.592t34.224 19.5q20.98 7.008 44.528 13.628a227.6 227.6 0 0 1 44.528 17.664 93.235 93.235 0 0 1 34.224 30.544q13.248 19.5 13.248 53.36 0 41.216-30.176 65.872t-84.64 24.656z" fill="#231e2e" transform="translate(19 -318.941)"/></g></svg>