<?xml version="1.0" standalone="no"?>
<!DOCTYPE svg PUBLIC "-//W3C//DTD SVG 20010904//EN"
 "http://www.w3.org/TR/2001/REC-SVG-20010904/DTD/svg10.dtd">
<svg version="1.0" xmlns="http://www.w3.org/2000/svg"
 width="260.000000pt" height="260.000000pt" viewBox="0 0 260.000000 260.000000"
 preserveAspectRatio="xMidYMid meet">
<metadata>
Created by potrace 1.14, written by Peter Selinger 2001-2017
</metadata>
<g transform="translate(0.000000,260.000000) scale(0.100000,-0.100000)"
fill="#000000" stroke="none">
<path d="M327 2590 c-157 -27 -291 -164 -317 -326 -13 -79 -13 -1849 0 -1928
27 -164 162 -299 326 -326 79 -13 1849 -13 1928 0 167 27 301 163 327 331 6
40 9 416 7 1004 -3 935 -3 940 -24 992 -45 110 -134 197 -244 240 -42 17 -111
18 -1000 19 -525 1 -977 -2 -1003 -6z m1502 -810 c163 -21 222 -80 223 -224 1
-100 -15 -148 -66 -201 -34 -36 -39 -46 -26 -50 10 -3 34 -22 54 -42 45 -45
66 -112 66 -208 0 -143 -53 -236 -156 -274 -48 -18 -77 -21 -234 -21 -167 0
-180 1 -190 19 -6 13 -10 186 -10 493 0 490 1 497 40 511 27 10 213 7 299 -3z
m-1166 -32 c13 -18 77 -136 142 -262 l117 -228 123 237 c68 130 133 247 146
261 31 33 76 33 89 -2 14 -35 13 -949 0 -975 -12 -22 -59 -26 -78 -7 -9 9 -12
113 -12 408 l0 395 -119 -224 c-65 -123 -126 -228 -136 -234 -27 -15 -44 10
-162 236 l-108 209 -5 -391 c-4 -334 -7 -393 -20 -401 -21 -13 -54 -12 -68 2
-17 17 -17 979 0 996 23 23 66 14 91 -20z"/>
<path d="M1590 1531 l0 -173 139 4 c123 3 143 6 168 24 41 30 58 71 58 139 0
133 -42 164 -235 172 l-130 6 0 -172z"/>
<path d="M1590 1060 l0 -210 128 0 c213 1 262 41 262 219 -1 103 -22 151 -82
180 -38 18 -62 21 -176 21 l-132 0 0 -210z"/>
</g>
</svg>
